<mxfile host="app.diagrams.net" agent="Mozilla/5.0 (Windows NT 10.0; Win64; x64) AppleWebKit/537.36 (KHTML, like Gecko) Chrome/131.0.0.0 Safari/537.36" version="24.8.6">
  <diagram id="prtHgNgQTEPvFCAcTncT" name="Page-1">
    <mxGraphModel dx="1434" dy="784" grid="1" gridSize="10" guides="1" tooltips="1" connect="1" arrows="1" fold="1" page="1" pageScale="1" pageWidth="827" pageHeight="1169" math="0" shadow="0">
      <root>
        <mxCell id="0" />
        <mxCell id="1" parent="0" />
        <mxCell id="cmFSf-ywoeIjQ_UMWc5y-1" value="&lt;font style=&quot;font-size: 24px;&quot;&gt;Features and Functionalities&lt;/font&gt;" style="rounded=0;whiteSpace=wrap;html=1;" vertex="1" parent="1">
          <mxGeometry x="556" y="326" width="320" height="60" as="geometry" />
        </mxCell>
        <mxCell id="cmFSf-ywoeIjQ_UMWc5y-2" value="" style="endArrow=none;html=1;rounded=0;" edge="1" parent="1">
          <mxGeometry width="50" height="50" relative="1" as="geometry">
            <mxPoint x="722" y="386" as="sourcePoint" />
            <mxPoint x="722" y="446" as="targetPoint" />
          </mxGeometry>
        </mxCell>
        <mxCell id="cmFSf-ywoeIjQ_UMWc5y-6" value="" style="endArrow=none;html=1;rounded=0;" edge="1" parent="1">
          <mxGeometry width="50" height="50" relative="1" as="geometry">
            <mxPoint x="280" y="445" as="sourcePoint" />
            <mxPoint x="1080" y="445" as="targetPoint" />
          </mxGeometry>
        </mxCell>
        <mxCell id="cmFSf-ywoeIjQ_UMWc5y-7" value="" style="endArrow=none;html=1;rounded=0;" edge="1" parent="1">
          <mxGeometry width="50" height="50" relative="1" as="geometry">
            <mxPoint x="281" y="444" as="sourcePoint" />
            <mxPoint x="281" y="504" as="targetPoint" />
          </mxGeometry>
        </mxCell>
        <mxCell id="cmFSf-ywoeIjQ_UMWc5y-10" value="" style="endArrow=none;html=1;rounded=0;" edge="1" parent="1">
          <mxGeometry width="50" height="50" relative="1" as="geometry">
            <mxPoint x="555" y="445" as="sourcePoint" />
            <mxPoint x="555" y="505" as="targetPoint" />
          </mxGeometry>
        </mxCell>
        <mxCell id="cmFSf-ywoeIjQ_UMWc5y-14" value="" style="endArrow=none;html=1;rounded=0;" edge="1" parent="1">
          <mxGeometry width="50" height="50" relative="1" as="geometry">
            <mxPoint x="852" y="445" as="sourcePoint" />
            <mxPoint x="852" y="505" as="targetPoint" />
          </mxGeometry>
        </mxCell>
        <mxCell id="cmFSf-ywoeIjQ_UMWc5y-20" value="" style="endArrow=none;html=1;rounded=0;" edge="1" parent="1">
          <mxGeometry width="50" height="50" relative="1" as="geometry">
            <mxPoint x="1080" y="445" as="sourcePoint" />
            <mxPoint x="1080" y="505" as="targetPoint" />
          </mxGeometry>
        </mxCell>
        <mxCell id="cmFSf-ywoeIjQ_UMWc5y-41" value="" style="endArrow=none;html=1;rounded=0;" edge="1" parent="1">
          <mxGeometry width="50" height="50" relative="1" as="geometry">
            <mxPoint x="275" y="265" as="sourcePoint" />
            <mxPoint x="1080" y="265" as="targetPoint" />
          </mxGeometry>
        </mxCell>
        <mxCell id="cmFSf-ywoeIjQ_UMWc5y-42" value="" style="endArrow=none;html=1;rounded=0;" edge="1" parent="1">
          <mxGeometry width="50" height="50" relative="1" as="geometry">
            <mxPoint x="719" y="266" as="sourcePoint" />
            <mxPoint x="719" y="326" as="targetPoint" />
          </mxGeometry>
        </mxCell>
        <mxCell id="cmFSf-ywoeIjQ_UMWc5y-45" value="" style="endArrow=none;html=1;rounded=0;" edge="1" parent="1">
          <mxGeometry width="50" height="50" relative="1" as="geometry">
            <mxPoint x="274.5" y="205" as="sourcePoint" />
            <mxPoint x="274.5" y="265" as="targetPoint" />
          </mxGeometry>
        </mxCell>
        <mxCell id="cmFSf-ywoeIjQ_UMWc5y-49" value="" style="endArrow=none;html=1;rounded=0;" edge="1" parent="1">
          <mxGeometry width="50" height="50" relative="1" as="geometry">
            <mxPoint x="594.5" y="206" as="sourcePoint" />
            <mxPoint x="594.5" y="266" as="targetPoint" />
          </mxGeometry>
        </mxCell>
        <mxCell id="cmFSf-ywoeIjQ_UMWc5y-51" value="" style="endArrow=none;html=1;rounded=0;" edge="1" parent="1">
          <mxGeometry width="50" height="50" relative="1" as="geometry">
            <mxPoint x="851.5" y="206" as="sourcePoint" />
            <mxPoint x="851.5" y="266" as="targetPoint" />
          </mxGeometry>
        </mxCell>
        <mxCell id="cmFSf-ywoeIjQ_UMWc5y-52" value="" style="endArrow=none;html=1;rounded=0;" edge="1" parent="1">
          <mxGeometry width="50" height="50" relative="1" as="geometry">
            <mxPoint x="1080" y="206" as="sourcePoint" />
            <mxPoint x="1080" y="266" as="targetPoint" />
          </mxGeometry>
        </mxCell>
        <mxCell id="cmFSf-ywoeIjQ_UMWc5y-56" value="&lt;b&gt;&lt;font style=&quot;font-size: 14px;&quot;&gt;User Management&lt;/font&gt;&lt;/b&gt;" style="swimlane;fontStyle=0;childLayout=stackLayout;horizontal=1;startSize=30;horizontalStack=0;resizeParent=1;resizeParentMax=0;resizeLast=0;collapsible=1;marginBottom=0;whiteSpace=wrap;html=1;" vertex="1" parent="1">
          <mxGeometry x="211" y="501" width="140" height="120" as="geometry" />
        </mxCell>
        <mxCell id="cmFSf-ywoeIjQ_UMWc5y-57" value="&lt;span style=&quot;box-sizing: border-box; color: rgb(51, 51, 51); font-family: aktiv-grotesk, sans-serif; background-color: rgb(255, 255, 255);&quot;&gt;&lt;font style=&quot;font-size: 12px;&quot;&gt;User Registration&lt;/font&gt;&lt;/span&gt;" style="text;strokeColor=none;fillColor=none;align=left;verticalAlign=middle;spacingLeft=4;spacingRight=4;overflow=hidden;points=[[0,0.5],[1,0.5]];portConstraint=eastwest;rotatable=0;whiteSpace=wrap;html=1;" vertex="1" parent="cmFSf-ywoeIjQ_UMWc5y-56">
          <mxGeometry y="30" width="140" height="30" as="geometry" />
        </mxCell>
        <mxCell id="cmFSf-ywoeIjQ_UMWc5y-58" value="&lt;span style=&quot;box-sizing: border-box; color: rgb(51, 51, 51); font-family: aktiv-grotesk, sans-serif; background-color: rgb(255, 255, 255);&quot;&gt;&lt;font style=&quot;font-size: 12px;&quot;&gt;User Login and Authentication&lt;/font&gt;&lt;/span&gt;" style="text;strokeColor=none;fillColor=none;align=left;verticalAlign=middle;spacingLeft=4;spacingRight=4;overflow=hidden;points=[[0,0.5],[1,0.5]];portConstraint=eastwest;rotatable=0;whiteSpace=wrap;html=1;" vertex="1" parent="cmFSf-ywoeIjQ_UMWc5y-56">
          <mxGeometry y="60" width="140" height="30" as="geometry" />
        </mxCell>
        <mxCell id="cmFSf-ywoeIjQ_UMWc5y-59" value="&lt;span style=&quot;box-sizing: border-box; color: rgb(51, 51, 51); font-family: aktiv-grotesk, sans-serif; background-color: rgb(255, 255, 255);&quot;&gt;&lt;font style=&quot;font-size: 12px;&quot;&gt;Profile Management&lt;/font&gt;&lt;/span&gt;" style="text;strokeColor=none;fillColor=none;align=left;verticalAlign=middle;spacingLeft=4;spacingRight=4;overflow=hidden;points=[[0,0.5],[1,0.5]];portConstraint=eastwest;rotatable=0;whiteSpace=wrap;html=1;" vertex="1" parent="cmFSf-ywoeIjQ_UMWc5y-56">
          <mxGeometry y="90" width="140" height="30" as="geometry" />
        </mxCell>
        <mxCell id="cmFSf-ywoeIjQ_UMWc5y-61" value="&lt;b&gt;&lt;font style=&quot;font-size: 14px;&quot;&gt;Property Listings Management&lt;/font&gt;&lt;/b&gt;" style="swimlane;fontStyle=0;childLayout=stackLayout;horizontal=1;startSize=30;horizontalStack=0;resizeParent=1;resizeParentMax=0;resizeLast=0;collapsible=1;marginBottom=0;whiteSpace=wrap;html=1;" vertex="1" parent="1">
          <mxGeometry x="490" y="500" width="140" height="90" as="geometry" />
        </mxCell>
        <mxCell id="cmFSf-ywoeIjQ_UMWc5y-62" value="&lt;span style=&quot;box-sizing: border-box; color: rgb(51, 51, 51); font-family: aktiv-grotesk, sans-serif; background-color: rgb(255, 255, 255);&quot;&gt;&lt;font style=&quot;font-size: 12px;&quot;&gt;Add Listings&lt;/font&gt;&lt;/span&gt;" style="text;strokeColor=none;fillColor=none;align=left;verticalAlign=middle;spacingLeft=4;spacingRight=4;overflow=hidden;points=[[0,0.5],[1,0.5]];portConstraint=eastwest;rotatable=0;whiteSpace=wrap;html=1;" vertex="1" parent="cmFSf-ywoeIjQ_UMWc5y-61">
          <mxGeometry y="30" width="140" height="30" as="geometry" />
        </mxCell>
        <mxCell id="cmFSf-ywoeIjQ_UMWc5y-63" value="&lt;span style=&quot;box-sizing: border-box; color: rgb(51, 51, 51); font-family: aktiv-grotesk, sans-serif; background-color: rgb(255, 255, 255);&quot;&gt;&lt;font style=&quot;font-size: 12px;&quot;&gt;Edit/Delete Listings&lt;/font&gt;&lt;/span&gt;" style="text;strokeColor=none;fillColor=none;align=left;verticalAlign=middle;spacingLeft=4;spacingRight=4;overflow=hidden;points=[[0,0.5],[1,0.5]];portConstraint=eastwest;rotatable=0;whiteSpace=wrap;html=1;" vertex="1" parent="cmFSf-ywoeIjQ_UMWc5y-61">
          <mxGeometry y="60" width="140" height="30" as="geometry" />
        </mxCell>
        <mxCell id="cmFSf-ywoeIjQ_UMWc5y-65" value="&lt;b&gt;&lt;font style=&quot;font-size: 14px;&quot;&gt;Search &amp;amp; Filtering&lt;/font&gt;&lt;/b&gt;" style="swimlane;fontStyle=0;childLayout=stackLayout;horizontal=1;startSize=30;horizontalStack=0;resizeParent=1;resizeParentMax=0;resizeLast=0;collapsible=1;marginBottom=0;whiteSpace=wrap;html=1;" vertex="1" parent="1">
          <mxGeometry x="790" y="500" width="140" height="150" as="geometry" />
        </mxCell>
        <mxCell id="cmFSf-ywoeIjQ_UMWc5y-66" value="&lt;span style=&quot;box-sizing: border-box; color: rgb(51, 51, 51); font-family: aktiv-grotesk, sans-serif; background-color: rgb(255, 255, 255);&quot;&gt;&lt;font style=&quot;font-size: 12px;&quot;&gt;Location&lt;/font&gt;&lt;/span&gt;" style="text;strokeColor=none;fillColor=none;align=left;verticalAlign=middle;spacingLeft=4;spacingRight=4;overflow=hidden;points=[[0,0.5],[1,0.5]];portConstraint=eastwest;rotatable=0;whiteSpace=wrap;html=1;" vertex="1" parent="cmFSf-ywoeIjQ_UMWc5y-65">
          <mxGeometry y="30" width="140" height="30" as="geometry" />
        </mxCell>
        <mxCell id="cmFSf-ywoeIjQ_UMWc5y-67" value="&lt;span style=&quot;box-sizing: border-box; color: rgb(51, 51, 51); font-family: aktiv-grotesk, sans-serif; background-color: rgb(255, 255, 255);&quot;&gt;&lt;font style=&quot;font-size: 12px;&quot;&gt;Price range&lt;/font&gt;&lt;/span&gt;" style="text;strokeColor=none;fillColor=none;align=left;verticalAlign=middle;spacingLeft=4;spacingRight=4;overflow=hidden;points=[[0,0.5],[1,0.5]];portConstraint=eastwest;rotatable=0;whiteSpace=wrap;html=1;" vertex="1" parent="cmFSf-ywoeIjQ_UMWc5y-65">
          <mxGeometry y="60" width="140" height="30" as="geometry" />
        </mxCell>
        <mxCell id="cmFSf-ywoeIjQ_UMWc5y-68" value="&lt;span style=&quot;box-sizing: border-box; color: rgb(51, 51, 51); font-family: aktiv-grotesk, sans-serif; background-color: rgb(255, 255, 255);&quot;&gt;&lt;font style=&quot;font-size: 12px;&quot;&gt;Number of guests&lt;/font&gt;&lt;/span&gt;" style="text;strokeColor=none;fillColor=none;align=left;verticalAlign=middle;spacingLeft=4;spacingRight=4;overflow=hidden;points=[[0,0.5],[1,0.5]];portConstraint=eastwest;rotatable=0;whiteSpace=wrap;html=1;" vertex="1" parent="cmFSf-ywoeIjQ_UMWc5y-65">
          <mxGeometry y="90" width="140" height="30" as="geometry" />
        </mxCell>
        <mxCell id="cmFSf-ywoeIjQ_UMWc5y-74" value="&lt;span style=&quot;box-sizing: border-box; color: rgb(51, 51, 51); font-family: aktiv-grotesk, sans-serif; background-color: rgb(255, 255, 255);&quot;&gt;&lt;font style=&quot;font-size: 12px;&quot;&gt;Pagination&lt;/font&gt;&lt;/span&gt;" style="text;strokeColor=none;fillColor=none;align=left;verticalAlign=middle;spacingLeft=4;spacingRight=4;overflow=hidden;points=[[0,0.5],[1,0.5]];portConstraint=eastwest;rotatable=0;whiteSpace=wrap;html=1;" vertex="1" parent="cmFSf-ywoeIjQ_UMWc5y-65">
          <mxGeometry y="120" width="140" height="30" as="geometry" />
        </mxCell>
        <mxCell id="cmFSf-ywoeIjQ_UMWc5y-70" value="&lt;b&gt;&lt;font style=&quot;font-size: 14px;&quot;&gt;Booking Management&lt;/font&gt;&lt;/b&gt;" style="swimlane;fontStyle=0;childLayout=stackLayout;horizontal=1;startSize=30;horizontalStack=0;resizeParent=1;resizeParentMax=0;resizeLast=0;collapsible=1;marginBottom=0;whiteSpace=wrap;html=1;" vertex="1" parent="1">
          <mxGeometry x="1010" y="500" width="140" height="120" as="geometry" />
        </mxCell>
        <mxCell id="cmFSf-ywoeIjQ_UMWc5y-71" value="&lt;span style=&quot;box-sizing: border-box; color: rgb(51, 51, 51); font-family: aktiv-grotesk, sans-serif; background-color: rgb(255, 255, 255);&quot;&gt;&lt;font style=&quot;font-size: 12px;&quot;&gt;Booking Creation&lt;/font&gt;&lt;/span&gt;" style="text;strokeColor=none;fillColor=none;align=left;verticalAlign=middle;spacingLeft=4;spacingRight=4;overflow=hidden;points=[[0,0.5],[1,0.5]];portConstraint=eastwest;rotatable=0;whiteSpace=wrap;html=1;" vertex="1" parent="cmFSf-ywoeIjQ_UMWc5y-70">
          <mxGeometry y="30" width="140" height="30" as="geometry" />
        </mxCell>
        <mxCell id="cmFSf-ywoeIjQ_UMWc5y-72" value="&lt;span style=&quot;box-sizing: border-box; color: rgb(51, 51, 51); font-family: aktiv-grotesk, sans-serif; background-color: rgb(255, 255, 255);&quot;&gt;&lt;font style=&quot;font-size: 12px;&quot;&gt;Booking Cancellation&lt;/font&gt;&lt;/span&gt;" style="text;strokeColor=none;fillColor=none;align=left;verticalAlign=middle;spacingLeft=4;spacingRight=4;overflow=hidden;points=[[0,0.5],[1,0.5]];portConstraint=eastwest;rotatable=0;whiteSpace=wrap;html=1;" vertex="1" parent="cmFSf-ywoeIjQ_UMWc5y-70">
          <mxGeometry y="60" width="140" height="30" as="geometry" />
        </mxCell>
        <mxCell id="cmFSf-ywoeIjQ_UMWc5y-73" value="&lt;span style=&quot;box-sizing: border-box; color: rgb(51, 51, 51); font-family: aktiv-grotesk, sans-serif; background-color: rgb(255, 255, 255);&quot;&gt;&lt;font style=&quot;font-size: 12px;&quot;&gt;Booking Status&lt;/font&gt;&lt;/span&gt;" style="text;strokeColor=none;fillColor=none;align=left;verticalAlign=middle;spacingLeft=4;spacingRight=4;overflow=hidden;points=[[0,0.5],[1,0.5]];portConstraint=eastwest;rotatable=0;whiteSpace=wrap;html=1;" vertex="1" parent="cmFSf-ywoeIjQ_UMWc5y-70">
          <mxGeometry y="90" width="140" height="30" as="geometry" />
        </mxCell>
        <mxCell id="cmFSf-ywoeIjQ_UMWc5y-75" value="&lt;b&gt;&lt;font style=&quot;font-size: 14px;&quot;&gt;Payment Integration&lt;/font&gt;&lt;/b&gt;" style="swimlane;fontStyle=0;childLayout=stackLayout;horizontal=1;startSize=30;horizontalStack=0;resizeParent=1;resizeParentMax=0;resizeLast=0;collapsible=1;marginBottom=0;whiteSpace=wrap;html=1;" vertex="1" parent="1">
          <mxGeometry x="211" y="114" width="140" height="90" as="geometry" />
        </mxCell>
        <mxCell id="cmFSf-ywoeIjQ_UMWc5y-76" value="&lt;span style=&quot;box-sizing: border-box; color: rgb(51, 51, 51); font-family: aktiv-grotesk, sans-serif; background-color: rgb(255, 255, 255);&quot;&gt;&lt;font style=&quot;font-size: 12px;&quot;&gt;Secure payment gateway&lt;/font&gt;&lt;/span&gt;" style="text;strokeColor=none;fillColor=none;align=left;verticalAlign=middle;spacingLeft=4;spacingRight=4;overflow=hidden;points=[[0,0.5],[1,0.5]];portConstraint=eastwest;rotatable=0;whiteSpace=wrap;html=1;" vertex="1" parent="cmFSf-ywoeIjQ_UMWc5y-75">
          <mxGeometry y="30" width="140" height="30" as="geometry" />
        </mxCell>
        <mxCell id="cmFSf-ywoeIjQ_UMWc5y-77" value="&lt;font face=&quot;aktiv-grotesk, sans-serif&quot; color=&quot;#333333&quot;&gt;&lt;span style=&quot;background-color: rgb(255, 255, 255);&quot;&gt;Multiple currencies&lt;/span&gt;&lt;/font&gt;" style="text;strokeColor=none;fillColor=none;align=left;verticalAlign=middle;spacingLeft=4;spacingRight=4;overflow=hidden;points=[[0,0.5],[1,0.5]];portConstraint=eastwest;rotatable=0;whiteSpace=wrap;html=1;" vertex="1" parent="cmFSf-ywoeIjQ_UMWc5y-75">
          <mxGeometry y="60" width="140" height="30" as="geometry" />
        </mxCell>
        <mxCell id="cmFSf-ywoeIjQ_UMWc5y-79" value="&lt;b&gt;&lt;font style=&quot;font-size: 14px;&quot;&gt;Reviews &amp;amp; Ratings&lt;/font&gt;&lt;/b&gt;" style="swimlane;fontStyle=0;childLayout=stackLayout;horizontal=1;startSize=30;horizontalStack=0;resizeParent=1;resizeParentMax=0;resizeLast=0;collapsible=1;marginBottom=0;whiteSpace=wrap;html=1;" vertex="1" parent="1">
          <mxGeometry x="530" y="114" width="140" height="90" as="geometry" />
        </mxCell>
        <mxCell id="cmFSf-ywoeIjQ_UMWc5y-80" value="&lt;span style=&quot;box-sizing: border-box; color: rgb(51, 51, 51); font-family: aktiv-grotesk, sans-serif; background-color: rgb(255, 255, 255);&quot;&gt;&lt;font style=&quot;font-size: 12px;&quot;&gt;Leave Reviews&lt;/font&gt;&lt;/span&gt;" style="text;strokeColor=none;fillColor=none;align=left;verticalAlign=middle;spacingLeft=4;spacingRight=4;overflow=hidden;points=[[0,0.5],[1,0.5]];portConstraint=eastwest;rotatable=0;whiteSpace=wrap;html=1;" vertex="1" parent="cmFSf-ywoeIjQ_UMWc5y-79">
          <mxGeometry y="30" width="140" height="30" as="geometry" />
        </mxCell>
        <mxCell id="cmFSf-ywoeIjQ_UMWc5y-81" value="&lt;span style=&quot;box-sizing: border-box; color: rgb(51, 51, 51); font-family: aktiv-grotesk, sans-serif; background-color: rgb(255, 255, 255);&quot;&gt;&lt;font style=&quot;font-size: 12px;&quot;&gt;Respond to reviews&lt;/font&gt;&lt;/span&gt;" style="text;strokeColor=none;fillColor=none;align=left;verticalAlign=middle;spacingLeft=4;spacingRight=4;overflow=hidden;points=[[0,0.5],[1,0.5]];portConstraint=eastwest;rotatable=0;whiteSpace=wrap;html=1;" vertex="1" parent="cmFSf-ywoeIjQ_UMWc5y-79">
          <mxGeometry y="60" width="140" height="30" as="geometry" />
        </mxCell>
        <mxCell id="cmFSf-ywoeIjQ_UMWc5y-87" value="&lt;b&gt;&lt;font style=&quot;font-size: 14px;&quot;&gt;Notifiation System&lt;/font&gt;&lt;/b&gt;" style="swimlane;fontStyle=0;childLayout=stackLayout;horizontal=1;startSize=30;horizontalStack=0;resizeParent=1;resizeParentMax=0;resizeLast=0;collapsible=1;marginBottom=0;whiteSpace=wrap;html=1;" vertex="1" parent="1">
          <mxGeometry x="780" y="84" width="140" height="120" as="geometry" />
        </mxCell>
        <mxCell id="cmFSf-ywoeIjQ_UMWc5y-88" value="&lt;span style=&quot;box-sizing: border-box; color: rgb(51, 51, 51); font-family: aktiv-grotesk, sans-serif; background-color: rgb(255, 255, 255);&quot;&gt;&lt;font style=&quot;font-size: 12px;&quot;&gt;Booking Confirmation&lt;/font&gt;&lt;/span&gt;" style="text;strokeColor=none;fillColor=none;align=left;verticalAlign=middle;spacingLeft=4;spacingRight=4;overflow=hidden;points=[[0,0.5],[1,0.5]];portConstraint=eastwest;rotatable=0;whiteSpace=wrap;html=1;" vertex="1" parent="cmFSf-ywoeIjQ_UMWc5y-87">
          <mxGeometry y="30" width="140" height="30" as="geometry" />
        </mxCell>
        <mxCell id="cmFSf-ywoeIjQ_UMWc5y-89" value="&lt;span style=&quot;box-sizing: border-box; color: rgb(51, 51, 51); font-family: aktiv-grotesk, sans-serif; background-color: rgb(255, 255, 255);&quot;&gt;&lt;font style=&quot;font-size: 12px;&quot;&gt;Cancellation&lt;/font&gt;&lt;/span&gt;" style="text;strokeColor=none;fillColor=none;align=left;verticalAlign=middle;spacingLeft=4;spacingRight=4;overflow=hidden;points=[[0,0.5],[1,0.5]];portConstraint=eastwest;rotatable=0;whiteSpace=wrap;html=1;" vertex="1" parent="cmFSf-ywoeIjQ_UMWc5y-87">
          <mxGeometry y="60" width="140" height="30" as="geometry" />
        </mxCell>
        <mxCell id="cmFSf-ywoeIjQ_UMWc5y-90" value="&lt;span style=&quot;box-sizing: border-box; color: rgb(51, 51, 51); font-family: aktiv-grotesk, sans-serif; background-color: rgb(255, 255, 255);&quot;&gt;&lt;font style=&quot;font-size: 12px;&quot;&gt;Payment updates&lt;/font&gt;&lt;/span&gt;" style="text;strokeColor=none;fillColor=none;align=left;verticalAlign=middle;spacingLeft=4;spacingRight=4;overflow=hidden;points=[[0,0.5],[1,0.5]];portConstraint=eastwest;rotatable=0;whiteSpace=wrap;html=1;" vertex="1" parent="cmFSf-ywoeIjQ_UMWc5y-87">
          <mxGeometry y="90" width="140" height="30" as="geometry" />
        </mxCell>
        <mxCell id="cmFSf-ywoeIjQ_UMWc5y-91" value="&lt;b&gt;&lt;font style=&quot;font-size: 14px;&quot;&gt;Admin Dashboard&lt;/font&gt;&lt;/b&gt;" style="swimlane;fontStyle=0;childLayout=stackLayout;horizontal=1;startSize=30;horizontalStack=0;resizeParent=1;resizeParentMax=0;resizeLast=0;collapsible=1;marginBottom=0;whiteSpace=wrap;html=1;" vertex="1" parent="1">
          <mxGeometry x="1010" y="55" width="140" height="150" as="geometry" />
        </mxCell>
        <mxCell id="cmFSf-ywoeIjQ_UMWc5y-92" value="&lt;span style=&quot;box-sizing: border-box; color: rgb(51, 51, 51); font-family: aktiv-grotesk, sans-serif; background-color: rgb(255, 255, 255);&quot;&gt;&lt;font style=&quot;font-size: 12px;&quot;&gt;User Management&lt;/font&gt;&lt;/span&gt;" style="text;strokeColor=none;fillColor=none;align=left;verticalAlign=middle;spacingLeft=4;spacingRight=4;overflow=hidden;points=[[0,0.5],[1,0.5]];portConstraint=eastwest;rotatable=0;whiteSpace=wrap;html=1;" vertex="1" parent="cmFSf-ywoeIjQ_UMWc5y-91">
          <mxGeometry y="30" width="140" height="30" as="geometry" />
        </mxCell>
        <mxCell id="cmFSf-ywoeIjQ_UMWc5y-93" value="&lt;span style=&quot;box-sizing: border-box; color: rgb(51, 51, 51); font-family: aktiv-grotesk, sans-serif; background-color: rgb(255, 255, 255);&quot;&gt;&lt;font style=&quot;font-size: 12px;&quot;&gt;Listing&lt;/font&gt;&lt;/span&gt;" style="text;strokeColor=none;fillColor=none;align=left;verticalAlign=middle;spacingLeft=4;spacingRight=4;overflow=hidden;points=[[0,0.5],[1,0.5]];portConstraint=eastwest;rotatable=0;whiteSpace=wrap;html=1;" vertex="1" parent="cmFSf-ywoeIjQ_UMWc5y-91">
          <mxGeometry y="60" width="140" height="30" as="geometry" />
        </mxCell>
        <mxCell id="cmFSf-ywoeIjQ_UMWc5y-94" value="&lt;span style=&quot;box-sizing: border-box; color: rgb(51, 51, 51); font-family: aktiv-grotesk, sans-serif; background-color: rgb(255, 255, 255);&quot;&gt;&lt;font style=&quot;font-size: 12px;&quot;&gt;Bookings&lt;/font&gt;&lt;/span&gt;" style="text;strokeColor=none;fillColor=none;align=left;verticalAlign=middle;spacingLeft=4;spacingRight=4;overflow=hidden;points=[[0,0.5],[1,0.5]];portConstraint=eastwest;rotatable=0;whiteSpace=wrap;html=1;" vertex="1" parent="cmFSf-ywoeIjQ_UMWc5y-91">
          <mxGeometry y="90" width="140" height="30" as="geometry" />
        </mxCell>
        <mxCell id="cmFSf-ywoeIjQ_UMWc5y-95" value="&lt;span style=&quot;box-sizing: border-box; color: rgb(51, 51, 51); font-family: aktiv-grotesk, sans-serif; background-color: rgb(255, 255, 255);&quot;&gt;&lt;font style=&quot;font-size: 12px;&quot;&gt;Payments&lt;/font&gt;&lt;/span&gt;" style="text;strokeColor=none;fillColor=none;align=left;verticalAlign=middle;spacingLeft=4;spacingRight=4;overflow=hidden;points=[[0,0.5],[1,0.5]];portConstraint=eastwest;rotatable=0;whiteSpace=wrap;html=1;" vertex="1" parent="cmFSf-ywoeIjQ_UMWc5y-91">
          <mxGeometry y="120" width="140" height="30" as="geometry" />
        </mxCell>
      </root>
    </mxGraphModel>
  </diagram>
</mxfile>
